<svg width="616" height="353" viewBox="0 0 616 353" xmlns="http://www.w3.org/2000/svg">
  <defs>
    <radialGradient id="bg" cx="30%" cy="20%" r="90%">
      <stop offset="0%" stop-color="#1c2340"/>
      <stop offset="55%" stop-color="#12162a"/>
      <stop offset="100%" stop-color="#0a0c18"/>
    </radialGradient>
    <radialGradient id="glow" cx="80%" cy="10%" r="60%">
      <stop offset="0%" stop-color="#f5c45d" stop-opacity="0.35"/>
      <stop offset="100%" stop-color="#f5c45d" stop-opacity="0"/>
    </radialGradient>
  </defs>
  <rect width="616" height="353" fill="url(#bg)"/>
  <rect width="616" height="353" fill="url(#glow)"/>

  <!-- felt table -->
  <ellipse cx="440" cy="270" rx="230" ry="120" fill="#1f3d2c" stroke="#5a3a22" stroke-width="8"/>
  <rect x="410" y="190" width="26" height="46" rx="5" fill="#f5c45d"/>
  <rect x="418" y="164" width="14" height="26" rx="4" fill="#f5c45d"/>
  <rect x="330" y="230" width="24" height="42" rx="5" fill="#7db6ff"/>
  <rect x="337" y="206" width="13" height="24" rx="4" fill="#7db6ff"/>
  <rect x="500" y="240" width="24" height="42" rx="5" fill="#ff7b8f"/>
  <rect x="507" y="216" width="13" height="24" rx="4" fill="#ff7b8f"/>
  <rect x="440" y="300" width="24" height="42" rx="5" fill="#6ee7a8"/>
  <rect x="447" y="276" width="13" height="24" rx="4" fill="#6ee7a8"/>

  <text x="42" y="140" font-family="Arial, Helvetica, sans-serif" font-weight="800" font-size="52" fill="#f7f7fb">TOY SOLDIERS</text>
  <text x="42" y="182" font-family="Arial, Helvetica, sans-serif" font-weight="800" font-size="52" fill="#f5c45d">TABLETOP</text>
  <text x="44" y="216" font-family="Arial, Helvetica, sans-serif" font-size="17" fill="#aeb4cf">Physics-powered chaos.</text>
  <rect x="42" y="238" width="120" height="4" rx="2" fill="#f5c45d"/>
</svg>
